<svg width="146" height="40" xmlns="http://www.w3.org/2000/svg">
    <defs>
        <linearGradient x1="0%" y1="0%" x2="99.852%" y2="99.852%" id="a">
            <stop stop-color="#0FA" offset="0%"/>
            <stop stop-color="#4579F5" offset="53.085%"/>
            <stop stop-color="#9C42F5" offset="99.982%"/>
        </linearGradient>
    </defs>
    <g fill="none" fill-rule="evenodd">
        <path d="M48 4h98v32H48z"/>
        <path d="M57.624 29c1.824 0 3.436-.348 4.836-1.044 1.4-.696 2.488-1.676 3.264-2.94.776-1.264 1.164-2.736 1.164-4.416 0-1.68-.388-3.152-1.164-4.416-.776-1.264-1.864-2.244-3.264-2.94-1.4-.696-3.012-1.044-4.836-1.044h-7.632V29h7.632zm-.192-3.192H53.88V15.392h3.552c1.68 0 3.02.468 4.02 1.404 1 .936 1.5 2.204 1.5 3.804 0 1.6-.5 2.868-1.5 3.804-1 .936-2.34 1.404-4.02 1.404zm17.528 3.384c2.336 0 4.112-.696 5.328-2.088l-1.992-2.16a4.33 4.33 0 0 1-1.452.948c-.52.2-1.116.3-1.788.3-.976 0-1.792-.232-2.448-.696A3.042 3.042 0 0 1 71.36 23.6h9.768c.048-.624.072-.96.072-1.008 0-1.344-.292-2.524-.876-3.54a5.956 5.956 0 0 0-2.412-2.34c-1.024-.544-2.168-.816-3.432-.816-1.296 0-2.468.284-3.516.852a6.305 6.305 0 0 0-2.472 2.376c-.6 1.016-.9 2.156-.9 3.42 0 1.28.304 2.424.912 3.432.608 1.008 1.472 1.796 2.592 2.364 1.12.568 2.408.852 3.864.852zm2.712-7.776h-6.36c.128-.832.48-1.488 1.056-1.968.576-.48 1.288-.72 2.136-.72.832 0 1.536.244 2.112.732.576.488.928 1.14 1.056 1.956zm11.264 7.776c1.36 0 2.548-.288 3.564-.864 1.016-.576 1.756-1.376 2.22-2.4l-2.904-1.584c-.656 1.184-1.624 1.776-2.904 1.776-.976 0-1.784-.32-2.424-.96-.64-.64-.96-1.512-.96-2.616s.32-1.976.96-2.616c.64-.64 1.448-.96 2.424-.96 1.264 0 2.232.592 2.904 1.776l2.904-1.56a5.053 5.053 0 0 0-2.22-2.436c-1.016-.568-2.204-.852-3.564-.852-1.376 0-2.612.284-3.708.852-1.096.568-1.952 1.356-2.568 2.364-.616 1.008-.924 2.152-.924 3.432 0 1.28.308 2.424.924 3.432.616 1.008 1.472 1.796 2.568 2.364 1.096.568 2.332.852 3.708.852zm8.816-14.904c.688 0 1.248-.204 1.68-.612.432-.408.648-.924.648-1.548 0-.576-.216-1.056-.648-1.44-.432-.384-.992-.576-1.68-.576s-1.248.2-1.68.6c-.432.4-.648.896-.648 1.488s.216 1.088.648 1.488c.432.4.992.6 1.68.6zM99.624 29V16.088H95.88V29h3.744zm6.224 0v-6.48c0-1.12.256-1.964.768-2.532.512-.568 1.2-.852 2.064-.852 1.632 0 2.448 1.016 2.448 3.048V29h3.744v-6.48c0-1.12.256-1.964.768-2.532.512-.568 1.208-.852 2.088-.852.784 0 1.388.252 1.812.756.424.504.636 1.268.636 2.292V29h3.744v-7.392c0-1.904-.476-3.332-1.428-4.284s-2.236-1.428-3.852-1.428c-.96 0-1.844.184-2.652.552a5.296 5.296 0 0 0-2.004 1.56 4.378 4.378 0 0 0-1.776-1.572c-.736-.36-1.56-.54-2.472-.54-.832 0-1.596.144-2.292.432a4.726 4.726 0 0 0-1.764 1.248v-1.488h-3.576V29h3.744zm24.416.192c1.92 0 3.232-.6 3.936-1.8V29h3.504v-7.368c0-1.92-.536-3.356-1.608-4.308s-2.608-1.428-4.608-1.428c-1.04 0-2.052.136-3.036.408-.984.272-1.828.656-2.532 1.152l1.344 2.616c.464-.368 1.028-.66 1.692-.876a6.517 6.517 0 0 1 2.028-.324c.992 0 1.736.22 2.232.66.496.44.744 1.068.744 1.884h-2.976c-1.888 0-3.284.344-4.188 1.032-.904.688-1.356 1.632-1.356 2.832 0 .752.192 1.424.576 2.016.384.592.94 1.056 1.668 1.392.728.336 1.588.504 2.58.504zm.936-2.52c-.656 0-1.172-.14-1.548-.42-.376-.28-.564-.66-.564-1.14 0-1.008.768-1.512 2.304-1.512h2.568v1.32c-.208.576-.56 1.012-1.056 1.308-.496.296-1.064.444-1.704.444zM143.832 29V11.192h-3.744V29h3.744z" fill="#FFF" fill-rule="nonzero"/>
        <g>
            <path d="M0 0h40v40H0z"/>
            <path d="M20 0c11.046 0 20 8.954 20 20s-8.954 20-20 20S0 31.046 0 20 8.954 0 20 0z" fill="url(#a)" fill-rule="nonzero"/>
            <path d="M28.4 9.167V30.89H11.25v-4.574h12.161V13.741H11.25V9.167H28.4zm-9.043 8.575v4.574H11.25v-4.574h8.107z" fill="#FFF" fill-rule="nonzero"/>
        </g>
    </g>
</svg>
